<?xml version="1.0" encoding="utf-8" ?><svg xmlns="http://www.w3.org/2000/svg" xmlns:xlink="http://www.w3.org/1999/xlink" width="717" height="717" viewBox="0 0 717 717"><path fill="#3F474F" d="M0 0L717 0L717 717L0 717L0 0Z"/><path fill="#60757D" d="M270.29 217.771C275.387 217.747 280.209 217.72 285.188 218.022C320.345 220.154 335.069 238.738 338.881 272.552C340.311 285.235 340.442 298.651 342.089 311.343C343.108 319.199 344.633 329.442 350.246 335.436C358.963 344.745 369.221 344.781 380.773 345.504C380.618 355.659 380.581 365.817 380.664 375.973C368.18 375.929 351.178 378.392 346.13 392.071C333.649 425.893 350.077 473.642 313.267 495.71C300.147 503.186 285.011 503.433 270.348 503.21C270.638 492.537 270.309 480.861 270.278 470.081C282.209 470.118 298.832 471.907 302.912 457.188C307.025 442.344 306.057 426.107 307.773 410.797C310.148 389.602 313.354 374.586 330.416 360.589C326.019 356.946 321.428 352.911 318.403 347.969C307.255 329.755 307.997 307.621 306.21 287.103C305.367 277.419 305.175 262.886 298.029 255.527C292.004 249.321 278.462 250.515 270.337 250.538C270.411 239.616 270.395 228.693 270.29 217.771Z"/><path fill="#60757D" d="M164.424 217.908C167.394 217.522 176.276 217.739 179.703 217.756C179.54 228.566 179.72 239.731 179.704 250.58C168.109 250.49 152.097 248.516 147.753 262.689C143.091 277.9 143.915 295.082 142.19 310.898C139.899 331.91 137.011 346.39 120.123 360.335C124.548 364.153 130.727 370.338 133.461 375.574C142.545 393.234 142.386 413.934 143.913 433.25C144.696 443.166 144.734 457.153 152.048 464.587C158.728 471.378 171.01 470.268 179.825 470.247C179.958 481.271 179.511 492.215 179.823 503.209C167.967 503.349 159.928 503.48 148.357 500.401C106.701 487.91 112.142 444.696 108.366 410.238C105.469 383.812 95.7033 376.053 69.5208 376.011L69.3603 344.921C72.1128 344.968 74.937 344.913 77.6823 344.701C86.1745 344.045 94.8533 341.714 100.488 334.891C117.077 314.807 101.262 262.81 125.472 234.695C135.363 223.208 149.769 218.952 164.424 217.908Z"/><path fill="#FEFEFE" d="M637.858 283.377C662.955 280.66 687.537 291.509 687.361 319.819C687.327 327.071 685.606 334.216 682.334 340.688C673.148 359.289 643.657 386.434 628.083 401.828C635.37 401.832 688.904 401.21 690.846 402.247C691.401 402.544 691.678 403.394 691.793 403.975C692.464 407.344 693.001 416.082 691.16 418.94C686.233 420.323 649.517 419.509 642.531 419.521C636.504 419.531 604.482 419.949 601.318 418.906C600.297 416.584 600.764 407.923 600.81 404.889C603.066 401.901 609.405 395.653 612.158 392.831L636.231 368.154C648.74 355.217 673.933 330.412 661.766 310.557C659.046 306.215 654.755 303.091 649.788 301.836C646.381 300.987 642.922 300.954 639.441 301.032C625.713 301.338 615.787 306.005 604.39 312.935C604.027 307.44 604.122 300.13 604.235 294.578C611.391 287.737 628.266 284.139 637.858 283.377Z"/><path fill="#FEFEFE" d="M503.053 308.792C508.633 308.579 515.454 308.758 521.158 308.659C522.035 308.644 522.798 309.107 523.367 309.794C524.104 312.233 519.782 322.581 518.732 325.504L495.193 387.689C491.165 398.27 487.396 409.231 483.052 419.621C475.834 419.936 466.437 419.772 459.172 419.657C457.018 415.028 454.476 407.443 452.598 402.421C448.599 391.87 444.663 381.295 440.787 370.698C438.41 364.198 418.931 312.671 419.302 309.384L420.061 308.961C424.911 308.651 435.618 308.583 440.272 308.985C441.584 311.963 442.71 315.404 443.747 318.504C452.856 345.737 463.109 372.749 471.645 400.165C478.39 376.509 487.845 353.267 495.477 329.864C497.591 323.381 500.119 314.821 503.053 308.792Z"/><path fill="#60757D" d="M195.695 253.857C215.471 254.124 235.177 253.69 254.928 253.896C255.349 272.909 254.981 293.309 254.828 312.411C235.102 312.56 215.375 312.569 195.65 312.437C195.342 300.577 195.508 288.976 195.649 277.128C195.742 269.361 195.506 261.653 195.695 253.857Z"/><path fill="#FEFEFE" d="M202.336 260.505L248.307 260.47C248.425 275.535 248.291 290.864 248.18 305.937C232.988 306.211 217.587 305.903 202.312 306.134C202.052 291.238 202.306 275.441 202.336 260.505Z"/><path fill="#07A8EF" d="M241.084 268.792C243.699 270.108 244.715 271.33 246.534 273.488C244.954 275.527 243.349 277.33 241.546 279.177C234.407 286.49 227.783 294.195 220.455 301.323C217.402 298.605 214.061 295.104 211.126 292.16C205.342 286.918 203.679 286.471 210.306 281.206C213.851 283.867 217.421 287.635 220.597 290.794C224.473 285.497 236.092 273.136 241.084 268.792Z"/><path fill="#60757D" d="M240.739 334.174L254.942 334.068C255.159 353.545 255.203 373.023 255.074 392.5L209.533 392.383L195.507 392.295C195.235 373.338 195.385 353.259 195.526 334.274L240.739 334.174Z"/><path fill="#FEFEFE" d="M202.225 340.674L248.293 340.607C248.398 355.781 248.38 370.956 248.241 386.13L202.331 386.075C202.162 370.942 202.127 355.808 202.225 340.674Z"/><path fill="#07A8EF" d="M222.583 344.254C233.243 342.602 243.217 349.923 244.837 360.588C246.456 371.252 239.105 381.204 228.436 382.792C217.812 384.372 207.912 377.059 206.299 366.44C204.687 355.821 211.969 345.899 222.583 344.254Z"/><path fill="#FEFEFE" d="M225.173 351.742C231.646 351.647 236.979 356.799 237.107 363.271C237.235 369.744 232.109 375.103 225.638 375.263C219.12 375.424 213.715 370.254 213.587 363.736C213.458 357.218 218.655 351.839 225.173 351.742Z"/><path fill="#60757D" d="M202.608 413.288L235.438 413.255C241.593 413.246 248.821 413.05 254.866 413.406C254.965 432.547 254.955 451.688 254.835 470.828L249.007 470.846L195.397 470.863C195.024 452.122 195.395 432.262 195.39 413.41L202.608 413.288Z"/><path fill="#FEFEFE" d="M243.873 419.937L248.146 420.029L248.139 464.246L208.046 464.233L202.371 464.248L202.331 419.994C216.061 420.148 230.13 420.009 243.873 419.937Z"/><path fill="#FEFEFE" d="M549.85 308.968C555.992 308.776 563.249 308.7 569.349 309.087C570.038 316.912 569.601 418.681 569.59 418.707C569.503 418.922 569.328 419.091 569.197 419.283L567.596 419.42C561.145 419.466 554.693 419.473 548.242 419.44C548.208 409.38 547.608 310.843 548.606 309.178L549.85 308.968Z"/><path fill="#FEFEFE" d="M558.036 265.163C561.883 265.153 565.608 265.155 568.847 267.691C573.81 271.577 574.176 280.491 570.16 285.167C567.494 288.27 564.343 288.657 560.515 289.018C553.155 289.298 546.61 287.542 545.667 278.989C545.279 275.474 545.889 271.553 548.32 268.798C551.09 265.66 554.148 265.411 558.036 265.163Z"/></svg>